<svg width="59" height="58" viewBox="0 0 59 58" fill="none" xmlns="http://www.w3.org/2000/svg">
<g clip-path="url(#clip0)">
<path fill-rule="evenodd" clip-rule="evenodd" d="M4.12893 15.9967C5.33758 13.3946 7.04552 11.1244 9.04821 9.07C13.5801 4.42072 19.0673 1.44353 25.5625 0.42803C34.6539 -0.993423 42.7904 1.10472 49.8217 7.03043C50.2659 7.40491 50.3757 7.62378 49.8927 8.08675C47.4109 10.4653 44.9683 12.8829 42.5114 15.2862C42.2593 15.5328 42.0891 15.8338 41.6416 15.4322C35.4511 9.88081 25.3466 9.94406 18.7685 15.9315C16.5102 17.9871 14.9043 20.4505 13.8529 23.2744C13.6995 23.1761 13.5382 23.0883 13.3936 22.9794C10.3043 20.6533 7.21677 18.3246 4.12893 15.9967Z" fill="#E6E6E6"/>
<path fill-rule="evenodd" clip-rule="evenodd" d="M13.7799 34.6125C14.6673 36.8183 15.7701 38.9041 17.4089 40.6754C21.5762 45.1799 26.7417 47.123 32.9307 46.4941C35.8063 46.2019 38.4263 45.2487 40.8744 43.7839C41.1093 43.9894 41.3329 44.2091 41.5804 44.3985C44.4454 46.5878 47.3143 48.7725 50.1818 50.9585C47.0196 53.8978 43.2859 55.8546 39.0861 56.8939C29.1833 59.3438 20.0551 57.7954 11.9495 51.5347C8.59837 48.9465 5.96254 45.7492 4.10452 41.9648C7.32987 39.514 10.5549 37.0632 13.7799 34.6125Z" fill="#9D9D9D"/>
<path fill-rule="evenodd" clip-rule="evenodd" d="M50.1819 50.9585C47.3142 48.7727 44.4455 46.5877 41.5805 44.3986C41.3328 44.2092 41.1093 43.9896 40.8744 43.7839C42.816 42.3337 44.4361 40.6184 45.5002 38.439C45.9244 37.5702 46.2226 36.6606 46.5047 35.7411C46.6988 35.1071 46.6387 34.8603 45.8373 34.867C41.0646 34.9067 36.2914 34.8868 31.5183 34.8865C30.5073 34.8865 30.5065 34.8859 30.5065 33.8627C30.506 30.6964 30.5219 27.53 30.4928 24.3637C30.4872 23.753 30.5966 23.5186 31.2989 23.5205C40.1025 23.5455 48.9062 23.5401 57.7101 23.5284C58.1852 23.5278 58.4841 23.5624 58.5665 24.1281C59.6619 31.6641 58.7839 38.8647 54.7539 45.5155C53.5201 47.5517 52.0375 49.411 50.1819 50.9585Z" fill="#C7C7C7"/>
<path fill-rule="evenodd" clip-rule="evenodd" d="M13.78 34.6125C10.555 37.0632 7.32992 39.514 4.10457 41.9648C2.52953 39.0989 1.62105 36.02 1.19721 32.8132C0.462853 27.257 1.26979 21.9112 3.67802 16.8131C3.81028 16.533 3.97788 16.269 4.12892 15.9972C7.21676 18.3248 10.3043 20.6535 13.3936 22.9795C13.5382 23.0884 13.6996 23.1763 13.8529 23.2746C12.5593 27.0464 12.6237 30.8259 13.78 34.6125Z" fill="#EDEDED"/>
</g>
<defs>
<clipPath id="clip0">
<rect x="0.935486" width="58.0645" height="58" fill="white"/>
</clipPath>
</defs>
</svg>
