<svg width="58" height="58" viewBox="0 0 58 58" fill="none" xmlns="http://www.w3.org/2000/svg">
<g clip-path="url(#clip0)">
<path d="M26.4997 0.618973C28.0334 -0.204414 30.0311 -0.207973 31.5634 0.618973C39.2726 4.70351 46.9841 8.78165 54.6918 12.869C56.1414 13.6348 57.1113 15.1478 57.0965 16.7141V41.2892C57.1075 42.9204 56.042 44.4694 54.5123 45.2178C46.8285 49.2801 39.1485 53.3472 31.4662 57.4094C29.9009 58.2486 27.8632 58.1839 26.3466 57.2759C24.043 56.0237 21.7355 54.7777 19.4317 53.5267C18.9609 53.2635 18.4302 53.054 18.0979 52.6261C18.3916 52.2547 18.9171 52.2084 19.344 52.0463C20.3055 51.7594 21.1888 51.2992 22.0721 50.8526C22.2955 50.7093 22.5682 50.7642 22.7823 50.8925C24.7522 51.9516 26.7047 53.0415 28.681 54.0904C29.1027 54.3187 29.5296 54.0157 29.89 53.8272C37.4302 49.8311 44.9798 45.8502 52.5183 41.8529C52.7979 41.7269 52.9524 41.4488 52.9296 41.1618C52.9349 33.0551 52.9307 24.9469 52.9322 16.8401C52.9641 16.5145 52.7634 16.2152 52.4492 16.0818C44.7923 12.0382 37.139 7.98851 29.4832 3.94382C29.2117 3.76875 28.8533 3.7684 28.5814 3.94276C20.9254 7.98851 13.2736 12.0421 5.61787 16.0854C5.30503 16.2188 5.09507 16.5134 5.13234 16.8401C5.13363 24.9469 5.13234 33.0551 5.13234 41.1631C5.10513 41.4498 5.27126 41.7221 5.54869 41.8455C7.59166 42.9318 9.63729 44.0104 11.6816 45.0931C12.8333 45.6743 14.2474 46.0198 15.5162 45.5745C16.636 45.1978 17.4208 44.1264 17.3995 43.0115C17.4101 34.952 17.3942 26.8913 17.4074 18.8331C17.3795 18.4751 17.7414 18.1798 18.1124 18.2132C19.0941 18.2072 20.0769 18.2011 21.0586 18.2157C21.4682 18.2072 21.7503 18.5925 21.6997 18.953C21.6956 27.0633 21.7101 35.1742 21.693 43.2845C21.6956 45.4461 20.7486 47.7981 18.6164 48.8558C15.9896 50.1317 12.743 49.861 10.1479 48.6376C7.90142 47.5862 5.75751 46.3453 3.55085 45.219C2.01739 44.4747 0.957128 42.9194 0.967927 41.2893V16.7141C0.95184 15.115 1.96012 13.5746 3.45501 12.8203C11.1375 8.75461 18.8187 4.68608 26.4997 0.618973Z" fill="#ACADAB"/>
<path d="M33.2018 17.6424C36.5525 17.44 40.1394 17.5225 43.1546 19.0702C45.489 20.2565 46.7831 22.7458 46.8245 25.1776C46.7594 25.5056 46.3934 25.6866 46.0595 25.6641C45.0875 25.663 44.1151 25.6765 43.143 25.6581C42.7305 25.673 42.4909 25.3163 42.4391 24.9744C42.1597 23.8109 41.483 22.6585 40.315 22.0972C38.5222 21.2554 36.4432 21.298 34.488 21.3153C33.0609 21.3864 31.5261 21.5022 30.3168 22.2893C29.3885 22.8855 29.1066 24.089 29.4379 25.0583C29.7504 25.7541 30.6069 25.9788 31.3079 26.1855C35.3458 27.1759 39.6247 27.0775 43.5857 28.3805C45.2255 28.9119 46.8297 29.9447 47.391 31.5547C48.1252 33.7126 47.8035 36.2917 46.166 38.024C44.8384 39.4495 42.9049 40.2254 40.9761 40.6468C38.4105 41.1832 35.7477 41.197 33.1422 40.9588C30.692 40.6967 28.1424 40.0933 26.251 38.5279C24.6335 37.211 23.8436 35.1591 23.9221 33.1788C23.9408 32.8443 24.2959 32.6111 24.6376 32.6385C25.6165 32.6311 26.5956 32.6286 27.5745 32.6399C27.9656 32.6136 28.2554 32.9305 28.2755 33.276C28.456 34.3847 28.9004 35.5483 29.9314 36.2055C31.921 37.4093 34.4177 37.3269 36.6958 37.3605C38.5832 37.2821 40.7021 37.2583 42.2424 36.0886C43.0551 35.4212 43.2958 34.305 43.0762 33.3445C42.8384 32.5338 41.9337 32.156 41.1569 31.909C37.1708 30.7265 32.8442 31.1557 28.8965 29.8185C27.2938 29.2874 25.7441 28.2833 25.1284 26.7394C24.2692 24.5542 24.6628 21.8517 26.4718 20.1778C28.2354 18.5129 30.7814 17.8716 33.2018 17.6421V17.6424Z" fill="#ACADAB"/>
</g>
<defs>
<clipPath id="clip0">
<rect x="0.967743" width="56.129" height="58" fill="white"/>
</clipPath>
</defs>
</svg>
