<svg width="30" height="30" viewBox="0 0 30 30" fill="none" xmlns="http://www.w3.org/2000/svg">
<path fill-rule="evenodd" clip-rule="evenodd" d="M19.5783 19.5791C19.7524 19.4048 19.9592 19.2665 20.1869 19.1721C20.4145 19.0777 20.6585 19.0292 20.9049 19.0292C21.1513 19.0292 21.3953 19.0777 21.6229 19.1721C21.8505 19.2665 22.0573 19.4048 22.2314 19.5791L29.4502 26.798C29.802 27.1496 29.9997 27.6265 29.9999 28.1239C30.0001 28.6213 29.8027 29.0984 29.4511 29.4502C29.0995 29.8021 28.6226 29.9998 28.1252 30C27.6278 30.0002 27.1507 29.8027 26.7989 29.4512L19.5802 22.2323C19.4059 22.0581 19.2676 21.8513 19.1732 21.6237C19.0788 21.3961 19.0303 21.1521 19.0303 20.9057C19.0303 20.6593 19.0788 20.4153 19.1732 20.1877C19.2676 19.96 19.4059 19.7532 19.5802 19.5791H19.5783Z" fill="#62ADD7"/>
<path fill-rule="evenodd" clip-rule="evenodd" d="M12.1875 22.5004C13.5417 22.5004 14.8827 22.2337 16.1339 21.7154C17.3851 21.1972 18.5219 20.4375 19.4795 19.4799C20.4371 18.5223 21.1967 17.3854 21.715 16.1342C22.2332 14.883 22.5 13.542 22.5 12.1877C22.5 10.8334 22.2332 9.49243 21.715 8.24123C21.1967 6.99004 20.4371 5.85318 19.4795 4.89555C18.5219 3.93793 17.3851 3.1783 16.1339 2.66004C14.8827 2.14178 13.5417 1.87504 12.1875 1.87504C9.45243 1.87504 6.82942 2.96155 4.89545 4.89556C2.96149 6.82956 1.875 9.45264 1.875 12.1877C1.875 14.9228 2.96149 17.5459 4.89545 19.4799C6.82942 21.4139 9.45243 22.5004 12.1875 22.5004ZM24.3749 12.1877C24.3749 15.4201 23.0909 18.5201 20.8053 20.8058C18.5197 23.0914 15.4198 24.3755 12.1875 24.3755C8.95515 24.3755 5.85522 23.0914 3.56963 20.8058C1.28403 18.5201 0 15.4201 0 12.1877C0 8.95535 1.28403 5.85535 3.56963 3.5697C5.85522 1.28406 8.95515 0 12.1875 0C15.4198 0 18.5197 1.28406 20.8053 3.5697C23.0909 5.85535 24.3749 8.95535 24.3749 12.1877Z" fill="#62ADD7"/>
</svg>
