<svg width="200" height="149" viewBox="0 0 200 149" fill="none" xmlns="http://www.w3.org/2000/svg">
<path d="M54.8318 136.55C53.8818 136.55 53.0618 136.355 52.3718 135.965C51.6818 135.575 51.1718 135.05 50.8418 134.39C50.7818 134.27 50.7768 134.155 50.8268 134.045C50.8868 133.935 50.9818 133.86 51.1118 133.82C51.2218 133.78 51.3318 133.785 51.4418 133.835C51.5518 133.885 51.6368 133.965 51.6968 134.075C51.9568 134.565 52.3518 134.95 52.8818 135.23C53.4218 135.51 54.0718 135.65 54.8318 135.65C55.6918 135.65 56.3668 135.435 56.8568 135.005C57.3568 134.575 57.6068 133.965 57.6068 133.175C57.6068 132.515 57.3668 131.96 56.8868 131.51C56.4168 131.05 55.6968 130.755 54.7268 130.625C53.6068 130.465 52.7318 130.105 52.1018 129.545C51.4718 128.975 51.1568 128.285 51.1568 127.475C51.1568 126.885 51.3018 126.37 51.5918 125.93C51.8918 125.49 52.3068 125.15 52.8368 124.91C53.3768 124.66 53.9968 124.535 54.6968 124.535C55.2168 124.535 55.6968 124.62 56.1368 124.79C56.5768 124.96 56.9618 125.185 57.2918 125.465C57.6218 125.735 57.8768 126.02 58.0568 126.32C58.1268 126.43 58.1418 126.55 58.1018 126.68C58.0718 126.8 57.9918 126.885 57.8618 126.935C57.7518 126.975 57.6418 126.98 57.5318 126.95C57.4218 126.91 57.3318 126.84 57.2618 126.74C57.1218 126.53 56.9418 126.325 56.7218 126.125C56.5018 125.925 56.2268 125.76 55.8968 125.63C55.5668 125.5 55.1668 125.435 54.6968 125.435C53.8768 125.435 53.2318 125.62 52.7618 125.99C52.2918 126.36 52.0568 126.885 52.0568 127.565C52.0568 128.105 52.2818 128.57 52.7318 128.96C53.1818 129.34 53.8968 129.615 54.8768 129.785C56.1668 130.005 57.0918 130.405 57.6518 130.985C58.2218 131.555 58.5068 132.285 58.5068 133.175C58.5068 133.875 58.3518 134.48 58.0418 134.99C57.7318 135.49 57.3018 135.875 56.7518 136.145C56.2018 136.415 55.5618 136.55 54.8318 136.55ZM64.4551 136.475C63.6651 136.475 62.9601 136.3 62.3401 135.95C61.7301 135.59 61.2501 135.095 60.9001 134.465C60.5501 133.835 60.3751 133.115 60.3751 132.305C60.3751 131.485 60.5401 130.765 60.8701 130.145C61.2001 129.515 61.6551 129.02 62.2351 128.66C62.8151 128.3 63.4801 128.12 64.2301 128.12C64.9701 128.12 65.6251 128.295 66.1951 128.645C66.7651 128.985 67.2101 129.46 67.5301 130.07C67.8501 130.67 68.0101 131.365 68.0101 132.155C68.0101 132.285 67.9701 132.39 67.8901 132.47C67.8101 132.54 67.7051 132.575 67.5751 132.575H61.2901C61.3201 133.175 61.4751 133.705 61.7551 134.165C62.0351 134.625 62.4051 134.985 62.8651 135.245C63.3351 135.505 63.8651 135.635 64.4551 135.635C64.8451 135.635 65.2351 135.57 65.6251 135.44C66.0251 135.3 66.3401 135.12 66.5701 134.9C66.6501 134.82 66.7451 134.78 66.8551 134.78C66.9751 134.77 67.0751 134.8 67.1551 134.87C67.2651 134.96 67.3201 135.06 67.3201 135.17C67.3301 135.28 67.2851 135.38 67.1851 135.47C66.8651 135.76 66.4451 136 65.9251 136.19C65.4151 136.38 64.9251 136.475 64.4551 136.475ZM64.2301 128.96C63.7101 128.96 63.2401 129.08 62.8201 129.32C62.4001 129.56 62.0551 129.895 61.7851 130.325C61.5251 130.745 61.3651 131.235 61.3051 131.795H67.1401C67.0701 130.955 66.7701 130.275 66.2401 129.755C65.7101 129.225 65.0401 128.96 64.2301 128.96ZM73.4228 136.49C72.6228 136.49 71.9028 136.31 71.2628 135.95C70.6328 135.58 70.1328 135.08 69.7628 134.45C69.4028 133.81 69.2228 133.095 69.2228 132.305C69.2228 131.505 69.4028 130.79 69.7628 130.16C70.1328 129.52 70.6328 129.02 71.2628 128.66C71.9028 128.29 72.6228 128.105 73.4228 128.105C74.2228 128.105 74.9378 128.29 75.5678 128.66C76.1978 129.02 76.6928 129.52 77.0528 130.16C77.4228 130.79 77.6078 131.505 77.6078 132.305V135.95C77.6078 136.08 77.5678 136.19 77.4878 136.28C77.4078 136.36 77.2978 136.4 77.1578 136.4C77.0278 136.4 76.9178 136.36 76.8278 136.28C76.7478 136.19 76.7078 136.08 76.7078 135.95V134.78C76.3778 135.3 75.9278 135.715 75.3578 136.025C74.7878 136.335 74.1428 136.49 73.4228 136.49ZM73.4228 135.65C74.0528 135.65 74.6128 135.505 75.1028 135.215C75.6028 134.915 75.9928 134.515 76.2728 134.015C76.5628 133.505 76.7078 132.935 76.7078 132.305C76.7078 131.665 76.5628 131.095 76.2728 130.595C75.9928 130.085 75.6028 129.685 75.1028 129.395C74.6128 129.095 74.0528 128.945 73.4228 128.945C72.8028 128.945 72.2428 129.095 71.7428 129.395C71.2428 129.685 70.8478 130.085 70.5578 130.595C70.2678 131.095 70.1228 131.665 70.1228 132.305C70.1228 132.935 70.2678 133.505 70.5578 134.015C70.8478 134.515 71.2428 134.915 71.7428 135.215C72.2428 135.505 72.8028 135.65 73.4228 135.65ZM80.3034 136.4C80.1734 136.4 80.0634 136.36 79.9734 136.28C79.8934 136.19 79.8534 136.08 79.8534 135.95V128.645C79.8534 128.505 79.8934 128.395 79.9734 128.315C80.0634 128.235 80.1734 128.195 80.3034 128.195C80.4434 128.195 80.5534 128.235 80.6334 128.315C80.7134 128.395 80.7534 128.505 80.7534 128.645V129.575C81.0434 129.115 81.4084 128.755 81.8484 128.495C82.2984 128.235 82.7934 128.105 83.3334 128.105C83.7134 128.105 84.0084 128.15 84.2184 128.24C84.4284 128.33 84.5084 128.49 84.4584 128.72C84.4284 128.87 84.3584 128.96 84.2484 128.99C84.1384 129.02 84.0034 129.025 83.8434 129.005C83.6934 128.975 83.5234 128.96 83.3334 128.96C82.8334 128.96 82.3884 129.065 81.9984 129.275C81.6084 129.485 81.3034 129.775 81.0834 130.145C80.8634 130.505 80.7534 130.92 80.7534 131.39V135.95C80.7534 136.08 80.7134 136.19 80.6334 136.28C80.5534 136.36 80.4434 136.4 80.3034 136.4ZM89.46 136.49C88.68 136.49 87.98 136.305 87.36 135.935C86.75 135.565 86.265 135.065 85.905 134.435C85.555 133.805 85.38 133.095 85.38 132.305C85.38 131.505 85.545 130.79 85.875 130.16C86.205 129.53 86.66 129.035 87.24 128.675C87.82 128.305 88.485 128.12 89.235 128.12C89.875 128.12 90.46 128.245 90.99 128.495C91.52 128.735 91.98 129.105 92.37 129.605C92.45 129.705 92.48 129.81 92.46 129.92C92.44 130.03 92.375 130.12 92.265 130.19C92.175 130.26 92.075 130.29 91.965 130.28C91.855 130.26 91.76 130.2 91.68 130.1C91.04 129.34 90.225 128.96 89.235 128.96C88.645 128.96 88.125 129.105 87.675 129.395C87.235 129.685 86.89 130.08 86.64 130.58C86.4 131.08 86.28 131.655 86.28 132.305C86.28 132.935 86.415 133.505 86.685 134.015C86.955 134.515 87.325 134.915 87.795 135.215C88.275 135.505 88.83 135.65 89.46 135.65C89.87 135.65 90.255 135.59 90.615 135.47C90.985 135.35 91.305 135.165 91.575 134.915C91.665 134.835 91.765 134.79 91.875 134.78C91.985 134.77 92.08 134.805 92.16 134.885C92.26 134.975 92.31 135.08 92.31 135.2C92.32 135.31 92.28 135.405 92.19 135.485C91.46 136.155 90.55 136.49 89.46 136.49ZM95.1716 136.4C95.0416 136.4 94.9316 136.36 94.8416 136.28C94.7616 136.19 94.7216 136.08 94.7216 135.95V128.645C94.7216 128.505 94.7616 128.395 94.8416 128.315C94.9316 128.235 95.0416 128.195 95.1716 128.195C95.3116 128.195 95.4216 128.235 95.5016 128.315C95.5816 128.395 95.6216 128.505 95.6216 128.645V129.425C95.9516 129.015 96.3616 128.69 96.8516 128.45C97.3516 128.21 97.8916 128.09 98.4716 128.09C99.1916 128.09 99.8366 128.24 100.407 128.54C100.987 128.83 101.442 129.26 101.772 129.83C102.102 130.39 102.267 131.085 102.267 131.915V135.95C102.267 136.08 102.222 136.19 102.132 136.28C102.052 136.36 101.947 136.4 101.817 136.4C101.687 136.4 101.577 136.36 101.487 136.28C101.407 136.19 101.367 136.08 101.367 135.95V131.915C101.367 131.255 101.237 130.71 100.977 130.28C100.727 129.85 100.382 129.53 99.9416 129.32C99.5116 129.1 99.0216 128.99 98.4716 128.99C97.9316 128.99 97.4466 129.095 97.0166 129.305C96.5866 129.505 96.2466 129.785 95.9966 130.145C95.7466 130.505 95.6216 130.91 95.6216 131.36V135.95C95.6216 136.08 95.5816 136.19 95.5016 136.28C95.4216 136.36 95.3116 136.4 95.1716 136.4ZM95.1716 132.8C95.0416 132.8 94.9316 132.76 94.8416 132.68C94.7616 132.59 94.7216 132.48 94.7216 132.35V125.135C94.7216 124.995 94.7616 124.885 94.8416 124.805C94.9316 124.725 95.0416 124.685 95.1716 124.685C95.3116 124.685 95.4216 124.725 95.5016 124.805C95.5816 124.885 95.6216 124.995 95.6216 125.135V132.35C95.6216 132.48 95.5816 132.59 95.5016 132.68C95.4216 132.76 95.3116 132.8 95.1716 132.8ZM105.564 136.4C105.434 136.4 105.324 136.36 105.234 136.28C105.154 136.19 105.114 136.08 105.114 135.95V128.645C105.114 128.505 105.154 128.395 105.234 128.315C105.324 128.235 105.434 128.195 105.564 128.195C105.704 128.195 105.814 128.235 105.894 128.315C105.974 128.395 106.014 128.505 106.014 128.645V135.95C106.014 136.08 105.974 136.19 105.894 136.28C105.814 136.36 105.704 136.4 105.564 136.4ZM105.549 126.47C105.359 126.47 105.194 126.405 105.054 126.275C104.924 126.135 104.859 125.965 104.859 125.765C104.859 125.535 104.929 125.365 105.069 125.255C105.219 125.135 105.384 125.075 105.564 125.075C105.734 125.075 105.889 125.135 106.029 125.255C106.179 125.365 106.254 125.535 106.254 125.765C106.254 125.965 106.184 126.135 106.044 126.275C105.914 126.405 105.749 126.47 105.549 126.47ZM109.468 136.4C109.338 136.4 109.228 136.36 109.138 136.28C109.058 136.19 109.018 136.08 109.018 135.95V128.645C109.018 128.505 109.058 128.395 109.138 128.315C109.228 128.235 109.338 128.195 109.468 128.195C109.608 128.195 109.718 128.235 109.798 128.315C109.878 128.395 109.918 128.505 109.918 128.645V129.425C110.248 129.015 110.658 128.69 111.148 128.45C111.648 128.21 112.188 128.09 112.768 128.09C113.488 128.09 114.133 128.24 114.703 128.54C115.283 128.83 115.738 129.26 116.068 129.83C116.398 130.39 116.563 131.085 116.563 131.915V135.95C116.563 136.08 116.518 136.19 116.428 136.28C116.348 136.36 116.243 136.4 116.113 136.4C115.983 136.4 115.873 136.36 115.783 136.28C115.703 136.19 115.663 136.08 115.663 135.95V131.915C115.663 131.255 115.533 130.71 115.273 130.28C115.023 129.85 114.678 129.53 114.238 129.32C113.808 129.1 113.318 128.99 112.768 128.99C112.228 128.99 111.743 129.095 111.313 129.305C110.883 129.505 110.543 129.785 110.293 130.145C110.043 130.505 109.918 130.91 109.918 131.36V135.95C109.918 136.08 109.878 136.19 109.798 136.28C109.718 136.36 109.608 136.4 109.468 136.4ZM122.861 136.49C122.041 136.49 121.316 136.31 120.686 135.95C120.056 135.59 119.561 135.095 119.201 134.465C118.841 133.835 118.661 133.115 118.661 132.305C118.661 131.485 118.846 130.76 119.216 130.13C119.586 129.5 120.086 129.005 120.716 128.645C121.356 128.285 122.071 128.105 122.861 128.105C123.681 128.105 124.401 128.285 125.021 128.645C125.651 129.005 126.146 129.5 126.506 130.13C126.866 130.76 127.046 131.485 127.046 132.305V135.245C127.046 136.055 126.866 136.785 126.506 137.435C126.146 138.085 125.656 138.595 125.036 138.965C124.416 139.345 123.711 139.535 122.921 139.535C122.091 139.535 121.381 139.38 120.791 139.07C120.211 138.76 119.731 138.365 119.351 137.885C119.271 137.785 119.231 137.68 119.231 137.57C119.231 137.46 119.281 137.37 119.381 137.3C119.481 137.22 119.596 137.19 119.726 137.21C119.866 137.23 119.971 137.295 120.041 137.405C120.351 137.775 120.746 138.08 121.226 138.32C121.706 138.57 122.271 138.695 122.921 138.695C123.541 138.695 124.091 138.545 124.571 138.245C125.061 137.945 125.446 137.53 125.726 137C126.006 136.48 126.146 135.895 126.146 135.245V134.585C125.856 135.165 125.426 135.63 124.856 135.98C124.286 136.32 123.621 136.49 122.861 136.49ZM122.861 135.65C123.501 135.65 124.066 135.51 124.556 135.23C125.056 134.94 125.446 134.545 125.726 134.045C126.006 133.535 126.146 132.955 126.146 132.305C126.146 131.645 126.006 131.065 125.726 130.565C125.446 130.055 125.056 129.66 124.556 129.38C124.066 129.09 123.501 128.945 122.861 128.945C122.221 128.945 121.651 129.09 121.151 129.38C120.651 129.66 120.261 130.055 119.981 130.565C119.701 131.065 119.561 131.645 119.561 132.305C119.561 132.955 119.701 133.535 119.981 134.045C120.261 134.545 120.651 134.94 121.151 135.23C121.651 135.51 122.221 135.65 122.861 135.65ZM133.851 136.64C133.631 136.64 133.446 136.565 133.296 136.415C133.156 136.275 133.086 136.095 133.086 135.875C133.086 135.655 133.161 135.475 133.311 135.335C133.461 135.195 133.641 135.125 133.851 135.125C134.061 135.125 134.236 135.2 134.376 135.35C134.526 135.49 134.601 135.665 134.601 135.875C134.601 136.085 134.526 136.265 134.376 136.415C134.236 136.565 134.061 136.64 133.851 136.64ZM141.264 136.64C141.044 136.64 140.859 136.565 140.709 136.415C140.569 136.275 140.499 136.095 140.499 135.875C140.499 135.655 140.574 135.475 140.724 135.335C140.874 135.195 141.054 135.125 141.264 135.125C141.474 135.125 141.649 135.2 141.789 135.35C141.939 135.49 142.014 135.665 142.014 135.875C142.014 136.085 141.939 136.265 141.789 136.415C141.649 136.565 141.474 136.64 141.264 136.64ZM148.676 136.64C148.456 136.64 148.271 136.565 148.121 136.415C147.981 136.275 147.911 136.095 147.911 135.875C147.911 135.655 147.986 135.475 148.136 135.335C148.286 135.195 148.466 135.125 148.676 135.125C148.886 135.125 149.061 135.2 149.201 135.35C149.351 135.49 149.426 135.665 149.426 135.875C149.426 136.085 149.351 136.265 149.201 136.415C149.061 136.565 148.886 136.64 148.676 136.64Z" fill="#403E3E"/>
<path d="M70.4871 36.4528H37.7822V60.3919H70.4871V36.4528Z" fill="#F8D7BC"/>
<path d="M34.4595 34.5305V36.4528H70.3751V60.3919H34.4595V62.1693H172.559V34.5305H34.4595Z" fill="#4EA0BA"/>
<path d="M6.04822 64.672H105.805C116.446 64.672 125.182 73.1233 125.182 83.4969V84.8026C125.182 95.14 116.595 103.628 105.955 103.628H6.08554V64.672H6.04822Z" fill="#F8ECE2"/>
<path d="M180.063 62.1693H1.26933C0.522644 62.1693 0.0373252 62.6409 0.0373252 63.3663C0.0373252 64.0917 0.522644 64.5632 1.26933 64.5632H105.171C116.184 64.5632 125.145 73.2683 125.145 83.9684C125.145 94.6685 116.334 103.374 105.283 103.482C105.283 103.482 105.283 103.482 105.171 103.482H1.232C0.485319 103.482 0 103.954 0 104.679C0 105.405 0.485319 105.876 1.232 105.876H180.026C191.04 105.876 200 97.1712 200 86.4712V81.7196C200.037 70.9832 191.077 62.2781 180.063 62.1693C180.063 62.2781 180.063 62.2781 180.063 62.1693Z" fill="#FFA756"/>
<path d="M108.979 72.9782H6.04822V71.6724H108.979C109.352 71.6724 109.726 72.0351 109.726 72.3978C109.688 72.7605 109.352 72.9782 108.979 72.9782Z" fill="#EBD0BE"/>
<path d="M61.4148 54.6611H37.7449V53.3553H61.5268C61.9002 53.3553 62.2735 53.718 62.2735 54.0807C62.1615 54.4072 61.7882 54.6611 61.4148 54.6611Z" fill="#E0C1A6"/>
<path d="M55.7773 47.1529H37.7449V45.8472H55.8893C56.2627 45.8472 56.636 46.1011 56.636 46.5726C56.524 46.7902 56.2627 47.1529 55.7773 47.1529Z" fill="#E0C1A6"/>
<path d="M116.446 88.1034H6.04822V86.7975H116.446C116.819 86.7975 117.192 87.1603 117.192 87.523C117.192 87.8857 116.819 88.1034 116.446 88.1034Z" fill="#EBD0BE"/>
<path d="M102.856 96.5547H6.04822V95.14H102.856C103.229 95.14 103.603 95.394 103.603 95.7204C103.565 96.2282 103.192 96.4458 102.856 96.5547Z" fill="#EBD0BE"/>
<path d="M113.123 80.7403H6.01086V79.4344H113.123C113.496 79.4344 113.87 79.7972 113.87 80.1599C113.758 80.3775 113.496 80.7403 113.123 80.7403Z" fill="#EBD0BE"/>
<path d="M99.0105 32.3904H58.9508V17.9907H99.0105C101.325 17.9907 103.192 19.7679 103.192 22.053V28.4731C103.192 30.6131 101.363 32.3904 99.0105 32.3904Z" fill="#F8D0B3"/>
<path d="M177.114 15.8507H55.5534C54.9561 15.8507 54.4707 16.3222 54.4707 16.9025C54.4707 17.4829 54.9561 17.9544 55.5534 17.9544H99.0479C101.363 17.9544 103.229 19.7318 103.229 22.0169V28.328C103.229 30.5769 101.4 32.3904 99.0479 32.3904H55.7774C55.1801 32.4992 54.6947 32.9708 54.8067 33.5874C54.8067 34.0589 55.2921 34.5305 55.7774 34.5305H177.114C179.429 34.5305 181.295 32.7531 181.295 30.468V19.768C181.295 17.8456 179.317 15.8507 177.114 15.8507Z" fill="#FF827A"/>
<path d="M52.4921 0.943115H117.827C121.635 0.943115 124.809 3.91736 124.809 7.72586V8.1974C124.809 11.8971 121.747 14.9801 117.827 14.9801H52.4921V0.943115Z" fill="#F8E7D8"/>
<path d="M164.122 0H49.6546C49.3932 0 49.1692 0.253918 49.1692 0.471546C49.1692 0.725446 49.4305 0.943093 49.6546 0.943093H117.566C121.486 0.943093 124.809 4.02613 124.809 7.97971C124.809 11.7882 121.635 15.0164 117.566 15.0164H49.6546C49.3932 15.0164 49.1692 15.2703 49.1692 15.488C49.1692 15.7419 49.4305 15.9594 49.6546 15.9594H164.122C168.042 15.9594 171.364 12.8764 171.364 8.92281V7.0004C171.364 3.08309 168.042 0 164.122 0Z" fill="#2B98BA"/>
<path d="M110.323 4.89663H52.4921V4.31635H110.323C110.584 4.31635 110.696 4.42516 110.696 4.67906C110.696 4.7516 110.584 4.89663 110.323 4.89663Z" fill="#DEBCA7"/>
<path d="M104.797 11.7882H52.4547V11.2079H104.797C105.059 11.2079 105.171 11.3168 105.171 11.5707C105.171 11.6795 105.059 11.7882 104.797 11.7882Z" fill="#DEBCA7"/>
<path d="M116.819 8.34243H52.4921V7.617H116.819C116.931 7.617 117.192 7.72582 117.192 7.97972C117.192 8.08853 117.08 8.34243 116.819 8.34243Z" fill="#DEBCA7"/>
<path d="M91.0957 86.7975H75.042C75.042 86.7975 72.4659 87.6318 70.2632 91.6942C67.5751 96.6996 68.4338 101.451 66.7164 105.151C65.6337 107.654 63.767 109.685 61.4523 111.099C63.2817 111.353 65.2604 111.462 67.2018 111.208C68.8071 110.846 70.2632 110.265 71.4952 109.286C71.8686 110.12 71.9805 110.954 72.0925 111.789C72.2046 112.623 72.2046 113.566 72.0925 114.4C72.0925 114.4 77.9914 113.094 80.3061 109.757C83.6289 105.223 80.7914 99.6376 85.1969 92.601C86.8023 90.4972 88.7437 88.466 91.0957 86.7975Z" fill="#BFA990"/>
</svg>
